<svg width="35" height="35" viewBox="0 0 35 35" fill="none" xmlns="http://www.w3.org/2000/svg">
<path fill-rule="evenodd" clip-rule="evenodd" d="M33.9265 22.4639C31.4588 23.265 28.7453 24.364 25.7136 25.729C14.1828 30.9212 8.08803 25.0264 7.99479 24.9317C11.6255 28.8801 21.2864 33.0212 30.9839 28.0572C30.0265 29.2811 28.9068 30.3692 27.6563 31.2973C21.5104 32.7077 17.6255 31.2186 17.6255 31.2186C19.1401 32.052 21.6615 32.9374 25.3068 32.7598C22.9213 33.9947 20.2136 34.6931 17.3437 34.6931C7.76511 34.6931 0 26.9264 0 17.3436C0 7.76495 7.76511 -0.000115742 17.3437 -0.000115742C26.9265 -0.000115742 34.6932 7.76495 34.6932 17.3436C34.6932 19.1306 34.4265 20.8494 33.9265 22.4639ZM16.6197 3.71349C10.2135 3.71349 5.01615 8.91708 5.01615 15.3228C5.01615 21.7291 10.2135 26.9264 16.6197 26.9374C18.9531 26.9374 21.1307 26.2452 22.9479 25.052C21.8495 25.453 20.6505 25.6718 19.4068 25.6718C13.688 25.6718 9.05729 21.0411 9.05729 15.328C9.05729 9.60922 13.688 4.97855 19.4068 4.97855C20.6505 4.97855 21.8495 5.19722 22.9479 5.59829C21.1307 4.40669 18.9531 3.71349 16.6197 3.71349ZM26.3855 19.5983C27.2599 18.265 27.7651 16.6666 27.7651 14.953C27.7651 10.2504 23.9479 6.43162 19.2453 6.43162C14.536 6.43162 10.724 10.2452 10.724 14.953C10.724 16.6666 11.2292 18.265 12.1042 19.5983C11.812 18.7863 11.6505 17.9119 11.6505 16.9947C11.6505 12.8026 15.0469 9.40148 19.2453 9.40148C23.4427 9.40148 26.8385 12.8026 26.8385 16.9947C26.8385 17.9171 26.6771 18.7863 26.3855 19.5983Z" fill="#004976"/>
</svg>
