<svg width="17" height="16" viewBox="0 0 17 16" fill="none" xmlns="http://www.w3.org/2000/svg">
<path d="M5.68609 12.8832C5.68609 12.9493 5.60726 13.0023 5.50786 13.0023C5.39476 13.0122 5.31593 12.9593 5.31593 12.8832C5.31593 12.817 5.39476 12.7641 5.49415 12.7641C5.59698 12.7541 5.68609 12.8071 5.68609 12.8832ZM4.62016 12.7343C4.59617 12.8005 4.66472 12.8766 4.76754 12.8964C4.85665 12.9295 4.95948 12.8964 4.98004 12.8302C5.00061 12.7641 4.93548 12.688 4.83266 12.6582C4.74355 12.635 4.64415 12.6681 4.62016 12.7343ZM6.13508 12.6781C6.03569 12.7012 5.96714 12.7641 5.97742 12.8402C5.9877 12.9063 6.07681 12.9493 6.17964 12.9262C6.27903 12.903 6.34758 12.8402 6.3373 12.774C6.32702 12.7111 6.23448 12.6681 6.13508 12.6781ZM8.39032 0C3.63649 0 0 3.48382 0 8.07266C0 11.7418 2.39234 14.8815 5.80948 15.9865C6.24819 16.0626 6.40242 15.8012 6.40242 15.5862C6.40242 15.3811 6.39214 14.2496 6.39214 13.5548C6.39214 13.5548 3.99294 14.0511 3.48911 12.5689C3.48911 12.5689 3.09839 11.6061 2.53629 11.358C2.53629 11.358 1.75141 10.8385 2.59113 10.8485C2.59113 10.8485 3.44456 10.9146 3.91411 11.7021C4.66472 12.9791 5.92258 12.6119 6.4127 12.3935C6.49153 11.8642 6.71431 11.4969 6.96109 11.2786C5.04516 11.0734 3.1121 10.8055 3.1121 7.62271C3.1121 6.71288 3.37258 6.25631 3.92097 5.67402C3.83185 5.45897 3.54052 4.5723 4.01008 3.42757C4.72641 3.21252 6.375 4.32086 6.375 4.32086C7.06048 4.13559 7.79738 4.03964 8.52742 4.03964C9.25746 4.03964 9.99436 4.13559 10.6798 4.32086C10.6798 4.32086 12.3284 3.20921 13.0448 3.42757C13.5143 4.57561 13.223 5.45897 13.1339 5.67402C13.6823 6.25962 14.0181 6.71619 14.0181 7.62271C14.0181 10.8154 11.9994 11.0701 10.0835 11.2786C10.3988 11.5399 10.6661 12.0362 10.6661 12.8137C10.6661 13.9287 10.6558 15.3083 10.6558 15.5796C10.6558 15.7946 10.8135 16.056 11.2488 15.9799C14.6762 14.8815 17 11.7418 17 8.07266C17 3.48382 13.1442 0 8.39032 0ZM3.33145 11.4109C3.2869 11.444 3.29718 11.5201 3.35544 11.5829C3.41028 11.6359 3.48911 11.659 3.53367 11.616C3.57823 11.5829 3.56794 11.5069 3.50968 11.444C3.45484 11.3911 3.37601 11.3679 3.33145 11.4109ZM2.96129 11.1429C2.9373 11.1859 2.97157 11.2389 3.04012 11.272C3.09496 11.305 3.16351 11.2951 3.1875 11.2488C3.21149 11.2058 3.17722 11.1528 3.10867 11.1198C3.04012 11.0999 2.98528 11.1098 2.96129 11.1429ZM4.07177 12.3207C4.01694 12.3637 4.0375 12.463 4.11633 12.5259C4.19516 12.602 4.29456 12.6119 4.33911 12.5589C4.38367 12.5159 4.36311 12.4167 4.29456 12.3538C4.21915 12.2777 4.11633 12.2678 4.07177 12.3207ZM3.68105 11.8344C3.62621 11.8675 3.62621 11.9535 3.68105 12.0296C3.73589 12.1057 3.82843 12.1388 3.87298 12.1057C3.92782 12.0627 3.92782 11.9767 3.87298 11.9006C3.825 11.8245 3.73589 11.7914 3.68105 11.8344Z" fill="#aaa6c3"/>
</svg>
