<svg width="21" height="16" viewBox="0 0 21 16" fill="none" xmlns="http://www.w3.org/2000/svg">
<path d="M18.8414 3.98749C18.8548 4.16248 18.8548 4.33751 18.8548 4.5125C18.8548 9.84997 14.5242 16 6.60916 16C4.17069 16 1.90547 15.3375 0 14.1875C0.34646 14.225 0.67955 14.2375 1.03934 14.2375C3.05137 14.2375 4.90356 13.6 6.38263 12.5125C4.49049 12.475 2.90482 11.3125 2.35849 9.7125C2.62501 9.74997 2.89149 9.77498 3.17134 9.77498C3.55775 9.77498 3.9442 9.72496 4.30395 9.63751C2.33187 9.26247 0.852759 7.63749 0.852759 5.67499V5.62501C1.42571 5.92501 2.09201 6.11251 2.79818 6.13748C1.63891 5.41247 0.879419 4.17498 0.879419 2.77497C0.879419 2.02499 1.09258 1.33749 1.4657 0.737481C3.58437 3.18748 6.76904 4.78745 10.3401 4.96248C10.2735 4.66248 10.2335 4.35001 10.2335 4.03751C10.2335 1.81248 12.1523 0 14.5374 0C15.7766 0 16.8959 0.487499 17.6821 1.275C18.6548 1.10001 19.5875 0.762491 20.4137 0.300002C20.0939 1.23752 19.4143 2.02502 18.5216 2.52499C19.3877 2.43753 20.2272 2.21248 21 1.90001C20.4138 2.69998 19.6809 3.41245 18.8414 3.98749V3.98749Z" fill="#aaa6c3"/>
</svg>
